<?xml version="1.0"?><svg version="1.2" baseProfile="tiny-ps" viewBox="0 0 300 300" xmlns="http://www.w3.org/2000/svg" xmlns:xlink="http://www.w3.org/1999/xlink"><title>xnakes</title><g><g fill="#26b914" transform="matrix(.1 0 0 -.1 0 300)"><path d="M2375 2948c-38-22-97-54-131-70-34-15-70-38-82-51l-21-22-10-45c-6-25-11-71-11-103v-58l-21-42c-37-73-87-123-513-512l-415-380-1-96v-97l34-26c19-14 37-26 40-26 2 0 239 205 527 455l522 455 56 15c31 9 72 20 91 25 52 14 155 78 210 131l48 46 22 43 22 43-19-6c-10-4-76-27-148-51l-130-45-9 9-8 8 11 83c6 45 13 85 16 88s26 8 51 11l45 5-30 36-30 36 12 12c17 17 32 14 66-15l31-26v16c0 48-107 196-141 196-8 0-45-19-84-42zm-77-179 3-16-20-24-20-24-17 11c-10 6-22 18-28 28l-11 17 20 15 20 15 25-3 25-3 3-16zm562 112c-42-42-103-102-137-133-34-32-67-67-74-79l-11-22 83 73 84 72 75 44c41 25 85 47 98 50 12 4 22 10 22 15v8l-41-14c-49-18-52-18-44-5 6 10 26 71 22 69-1-1-36-36-77-78zm-2660 2c8-12 206-218 440-460 234-241 461-475 504-520 44-46 84-83 90-83 12 1 161 139 155 144-29 24-1180 925-1190 931l-14 9 15-21zm1050-1555L805 938l-89-60c-87-59-163-98-259-133-90-32-163-104-188-184l-11-36-5-110-4-110 18-34 18-35 29-9 28-9 82 41 81 41 73 15c40 8 85 21 100 29l28 14 29 54c39 74 85 135 195 263l95 111 370 340 370 340 3 98 3 99-33 28c-18 16-35 28-38 28s-205-176-450-391zM638 433l3-31-21-7-21-7-14 12-15 12v23c0 29 9 37 40 33l25-3 3-32zm989 814-78-72 592-465c326-256 599-469 608-474 9-6-18 27-59 71-123 132-971 1008-978 1010-4 1-42-30-85-70zM144 133C118 90 85 43 71 28L46 0h11c6 0 22 9 37 21l26 20V0h20v20c0 10 13 58 29 105s27 85 25 85c-1 0-24-35-50-77z"/></g><g fill="#666" transform="matrix(.1 0 0 -.1 0 300)"><path d="M200 2883c8-12 206-218 440-460 234-241 461-475 504-520 44-46 84-83 90-83 12 1 161 139 155 144-29 24-1180 925-1190 931l-14 9 15-21zm1050-1555L805 938l-89-60c-87-59-163-98-259-133-90-32-163-104-188-184l-11-36-5-110-4-110 18-34 18-35 29-9 28-9 82 41 81 41 73 15c40 8 85 21 100 29l28 14 29 54c39 74 85 135 195 263l95 111 370 340 370 340 3 98 3 99-33 28c-18 16-35 28-38 28s-205-176-450-391zM638 433l3-31-21-7-21-7-14 12-15 12v23c0 29 9 37 40 33l25-3 3-32zM144 133C118 90 85 43 71 28L46 0h11c6 0 22 9 37 21l26 20V0h20v20c0 10 13 58 29 105s27 85 25 85c-1 0-24-35-50-77z"/></g></g></svg>